<svg xmlns="http://www.w3.org/2000/svg" width="84" height="83" viewBox="0 0 84 83"><path d="M68.89,9.68c-3-.88-4.75-1.07-4.75-2.72,0-1.13,1.06-2,2.91-2,2.18,0,6,1.7,6,1.7l2-4.5a17,17,0,0,0-7.76-2c-5.78,0-9.5,3.14-9.5,7.28,0,3.59,2.35,5.2,7.4,6.53,2.83.74,4.56,1.32,4.56,3.17,0,1.36-1.29,2.36-2.94,2.36a18.66,18.66,0,0,1-7.73-2.25L57,21.67a15.48,15.48,0,0,0,9,2.72c6.26,0,10.16-3.26,10.16-7.73,0-3.46-2.35-5.56-7.21-7" fill="#242e3a" fill-rule="evenodd"/><path d="M14.89.61H9.2v23.1h5.9l0-13.72s4.61,7.93,8.72,13.72h4.92V.61H22.92v12a134.18,134.18,0,0,0-8-12" fill="#242e3a" fill-rule="evenodd"/><polyline points="47.72 23.67 47.72 13.72 38.96 13.72 38.96 23.67 33.05 23.67 33.05 0.62 38.96 0.62 38.96 9.38 47.72 9.38 47.72 0.62 53.61 0.62 53.61 23.67 47.72 23.67" fill="#242e3a" fill-rule="evenodd"/><path d="M42,37.78c-1.91-3.43-8.46-9.1-20.08-7.23-4.42.38-6.25.65-8.59.47-9.26-.7-10.87-5.79-11-6.06H0s1.27,9.88,11.4,11.55c2.48.41,7.64-.07,11-.62,8.21-1.33,14.49-1.55,19.58,5.45,0,0,.06.08.12.08a.14.14,0,0,0,.13-.08A4.53,4.53,0,0,0,42,37.78" fill="#242e3a" fill-rule="evenodd"/><path d="M81.45,25c-.08.27-1.8,5.33-11,6-2.34.18-4.18-.09-8.59-.48C50.28,28.68,45.4,34.33,44,37.4a6.45,6.45,0,0,0-.42,3.94.15.15,0,0,0,.12.08c.06,0,.12-.08.12-.08,5.09-7,9.27-6.81,17.47-5.47,3.34.54,8.51,1,11,.62C82.39,34.82,83.77,25,83.77,25H81.45" fill="#242e3a" fill-rule="evenodd"/><polyline points="14.74 45.54 11.26 45.54 11.26 48.38 14.67 48.38 14.67 49.77 11.26 49.77 11.26 53.11 15.38 53.11 15.38 54.5 9.16 54.5 9.16 44.15 14.74 44.15 14.74 45.54" fill="#242e3a" fill-rule="evenodd"/><path d="M20.46,48.11c1.19,0,1.8,1.2,1.8,2.49,0,1.47-.56,2.89-1.89,2.89-1.14,0-1.7-1.39-1.7-2.82S19.19,48.11,20.46,48.11Zm1.8,6.39h2V43.63h-2V48h0a2.71,2.71,0,0,0-2.27-1,3.63,3.63,0,0,0-3.39,3.78c0,2.37,1.29,4,3.24,4a3,3,0,0,0,2.42-1.24h0V54.5Z" fill="#242e3a" fill-rule="evenodd"/><path d="M31.05,53.58a3.22,3.22,0,0,1-2.36,1.09c-1.59,0-2.51-.94-2.51-2.8V47.11h2v4.47c0,1,.46,1.72,1.39,1.72.69,0,1.49-.58,1.49-1.92V47.11h2V54.5h-2v-.92" fill="#242e3a" fill-rule="evenodd"/><path d="M40.83,54.1a4.4,4.4,0,0,1-2.11.57,3.82,3.82,0,0,1-4.1-3.84,3.92,3.92,0,0,1,4.2-3.9,4,4,0,0,1,1.93.5l-.47,1.14a4.64,4.64,0,0,0-.66-.22,2.5,2.5,0,0,0-.66-.09,2.23,2.23,0,0,0-2.25,2.47A2.33,2.33,0,0,0,39,53.34,3,3,0,0,0,40.43,53l.4,1.13" fill="#242e3a" fill-rule="evenodd"/><path d="M46.26,50.21c.15,2.17-.87,3.15-1.66,3.15a1,1,0,0,1-.89-1.1,1.72,1.72,0,0,1,1.45-1.69Zm0,3.21a2.32,2.32,0,0,0,.2,1.08h2.09a4.57,4.57,0,0,1-.31-1.81v-3c0-2.31-1.68-2.75-3.05-2.75a4.24,4.24,0,0,0-2.85,1l.64.94a2.85,2.85,0,0,1,2-.76,1.34,1.34,0,0,1,1.35,1.11l-1.75.52c-1.72.49-2.75,1.28-2.75,2.69a2.12,2.12,0,0,0,2.13,2.24,3.37,3.37,0,0,0,1.9-.88l.44-.37Z" fill="#242e3a" fill-rule="evenodd"/><path d="M52.46,47.11H54.4v1H52.46v3.64c0,1.21.37,1.73,1,1.73a1.92,1.92,0,0,0,1-.25l.34,1a4.21,4.21,0,0,1-1.94.47,2.08,2.08,0,0,1-2.35-2.36v-4.2h-1v-1h1V45.33l2-.44v2.22" fill="#242e3a" fill-rule="evenodd"/><path d="M55.9,54.5h2V47.11h-2Zm-.19-9.61a1.17,1.17,0,0,1,1.14-1.14,1.19,1.19,0,1,1-1.14,1.14Z" fill="#242e3a" fill-rule="evenodd"/><path d="M63.37,53.58c-1.41,0-1.79-1.57-1.79-2.87S62,48,63.37,48s1.82,1.47,1.82,2.69S64.82,53.58,63.37,53.58Zm0,1.09a3.87,3.87,0,1,0-3.89-4,3.77,3.77,0,0,0,3.89,4Z" fill="#242e3a" fill-rule="evenodd"/><path d="M70.85,48a3.44,3.44,0,0,1,2.54-1c1.73,0,2.65,1,2.65,2.81V54.5h-2V50c0-1-.46-1.72-1.49-1.72a1.67,1.67,0,0,0-1.72,1.85V54.5h-2V47.11h2V48" fill="#242e3a" fill-rule="evenodd"/><path d="M33.71,68.7V62.32H32.53v-1h1.18v-.84a2.48,2.48,0,0,1,2.57-2.63,3.51,3.51,0,0,1,1.55.32l-.34,1a2.75,2.75,0,0,0-.85-.14,1,1,0,0,0-1,1.11v1.2h1.78v1H35.69V68.7h-2" fill="#242e3a" fill-rule="evenodd"/><path d="M42.12,67.78c-1.41,0-1.8-1.56-1.8-2.86s.45-2.69,1.8-2.69,1.81,1.46,1.81,2.69S43.56,67.78,42.12,67.78Zm0,1.1a3.88,3.88,0,1,0-3.89-4,3.77,3.77,0,0,0,3.89,4Z" fill="#242e3a" fill-rule="evenodd"/><path d="M49.59,62.61h0L50,62c.24-.32.67-.91,1.28-.91a2,2,0,0,1,1.34.67l-.75,1.36a1.8,1.8,0,0,0-.93-.25c-.69,0-1.35.54-1.35,2.14V68.7h-2V61.31h2v1.3" fill="#242e3a" fill-rule="evenodd"/><path d="M18.61,74.07a3.12,3.12,0,0,0-1.67-.59c-.88,0-1.36.49-1.36,1.1s.73,1.19,2,2.15c1.4,1.11,2.14,2,2.14,3.26s-1.25,2.8-3.6,2.8a4.62,4.62,0,0,1-3.05-1l.75-1.18a3.46,3.46,0,0,0,2.13.82A1.44,1.44,0,0,0,17.52,80c0-1.14-1.4-1.89-2.23-2.54-1-.81-1.86-1.45-1.86-2.82s1.41-2.52,3.3-2.52a3.89,3.89,0,0,1,2.63.9l-.75,1.08" fill="#242e3a" fill-rule="evenodd"/><path d="M27.27,82.22a4.37,4.37,0,0,1-2.11.57A3.81,3.81,0,0,1,21.07,79a3.92,3.92,0,0,1,4.2-3.9,4,4,0,0,1,1.93.5l-.48,1.14a4.51,4.51,0,0,0-.65-.22,2.52,2.52,0,0,0-.67-.09,2.23,2.23,0,0,0-2.24,2.47,2.34,2.34,0,0,0,2.26,2.61,3,3,0,0,0,1.45-.37l.4,1.13" fill="#242e3a" fill-rule="evenodd"/><path d="M32.06,81.7c-1.41,0-1.8-1.57-1.8-2.87s.45-2.69,1.8-2.69,1.81,1.47,1.81,2.69S33.5,81.7,32.06,81.7Zm0,1.09a3.87,3.87,0,1,0-3.89-4,3.76,3.76,0,0,0,3.89,4Z" fill="#242e3a" fill-rule="evenodd"/><path d="M39.9,75.23h2v1h-2v3.64c0,1.21.37,1.73,1,1.73a1.79,1.79,0,0,0,.95-.26l.35,1a4.28,4.28,0,0,1-1.95.47,2.08,2.08,0,0,1-2.35-2.36v-4.2h-1v-1h1V73.45l2-.44v2.22" fill="#242e3a" fill-rule="evenodd"/><polygon points="43.34 82.62 45.32 82.62 45.32 71.75 43.34 71.75 43.34 82.62" fill="#242e3a" fill-rule="evenodd"/><path d="M51.47,78.33c.15,2.17-.88,3.15-1.66,3.15a1,1,0,0,1-.89-1.1,1.74,1.74,0,0,1,1.45-1.7Zm0,3.21a2.35,2.35,0,0,0,.19,1.08h2.1a4.57,4.57,0,0,1-.31-1.81v-3c0-2.31-1.68-2.75-3.05-2.75a4.24,4.24,0,0,0-2.85,1l.64.93a2.87,2.87,0,0,1,2-.75,1.34,1.34,0,0,1,1.35,1.11l-1.75.52C48,78.34,47,79.14,47,80.55a2.12,2.12,0,0,0,2.12,2.24,3.4,3.4,0,0,0,1.9-.88l.45-.37Z" fill="#242e3a" fill-rule="evenodd"/><path d="M57.29,76.1a3.47,3.47,0,0,1,2.54-1c1.74,0,2.66.94,2.66,2.81v4.76h-2V78.08c0-1-.46-1.72-1.49-1.72a1.67,1.67,0,0,0-1.72,1.85v4.41h-2V75.23h2v.87" fill="#242e3a" fill-rule="evenodd"/><path d="M68,76.23c1.19,0,1.79,1.2,1.79,2.48,0,1.48-.56,2.9-1.88,2.9-1.15,0-1.71-1.39-1.71-2.82S66.71,76.23,68,76.23Zm1.79,6.39h2V71.75h-2v4.33h0a2.7,2.7,0,0,0-2.27-1,3.62,3.62,0,0,0-3.38,3.78c0,2.37,1.29,4,3.23,4a3,3,0,0,0,2.42-1.24h0v1.07Z" fill="#242e3a" fill-rule="evenodd"/></svg>