<?xml version="1.0" encoding="UTF-8"?>
<svg width="84px" height="83px" viewBox="0 0 84 83" version="1.1" xmlns="http://www.w3.org/2000/svg" xmlns:xlink="http://www.w3.org/1999/xlink">
    <!-- Generator: Sketch 57.1 (83088) - https://sketch.com -->
    <title>NES2colourspot</title>
    <desc>Created with Sketch.</desc>
    <g id="NES-Designs" stroke="none" stroke-width="1" fill="none" fill-rule="evenodd">
        <g id="nes---Homepage" transform="translate(-1186.000000, -2150.000000)" fill="#FFFFFF">
            <g id="footer" transform="translate(2.000000, 2077.000000)">
                <g id="NES2colourspot" transform="translate(1184.000000, 73.000000)">
                    <path d="M68.8857931,9.67728125 C65.9032138,8.80434028 64.1377655,8.60980903 64.1377655,6.96104861 C64.1377655,5.82930903 65.2039862,4.98835764 67.0450345,4.98835764 C69.2348276,4.98835764 73.0779724,6.68755208 73.0779724,6.68755208 L75.0319862,2.18739583 C75.0319862,2.18739583 71.5790069,0.170034722 67.2660414,0.170034722 C61.4859724,0.170034722 57.7673793,3.30703125 57.7673793,7.44607986 C57.7673793,11.0352535 60.1240138,12.6523125 65.1666207,13.9782951 C68.0029241,14.722125 69.7339034,15.3039896 69.7339034,17.1475694 C69.7339034,18.5055417 68.4443586,19.5078819 66.7872414,19.5078819 C63.0640138,19.5078819 59.0604,17.2556424 59.0604,17.2556424 L56.9702483,21.6661701 C56.9702483,21.6661701 60.4281517,24.3910486 65.9397103,24.3910486 C72.2003172,24.3910486 76.104,21.1252292 76.104,16.66225 C76.104,13.2021875 73.7467862,11.1003854 68.8857931,9.67728125" id="Fill-1"></path>
                    <path d="M14.8868276,0.60953125 C12.0728276,0.611260417 9.19828966,0.60953125 9.19828966,0.60953125 L9.19828966,23.7088924 L15.1017517,23.7088924 L15.0722069,9.98651389 C15.0722069,9.98651389 19.6846759,17.9170486 23.7890897,23.7088924 C27.7747448,23.7169618 28.7106207,23.7088924 28.7106207,23.7088924 L28.7106207,0.61471875 L22.9195448,0.61471875 L22.9247586,12.6491424 C22.9247586,12.6491424 19.6852552,7.03050347 14.8868276,0.60953125" id="Fill-2"></path>
                    <polyline id="Fill-3" points="47.7224276 23.6665278 47.7224276 13.7160382 38.9577517 13.7160382 38.9577517 23.6665278 33.0545793 23.6665278 33.0545793 0.617024306 38.9577517 0.617024306 38.9577517 9.38217014 47.7224276 9.38217014 47.7224276 0.617024306 53.6128552 0.617024306 53.6128552 23.6665278 47.7224276 23.6665278"></polyline>
                    <path d="M41.9846483,37.776816 C40.0651034,34.3522014 33.5200552,28.6848576 21.8956138,30.5463056 C17.481269,30.9284514 15.6465931,31.2025243 13.306469,31.0238437 C4.05111724,30.3166146 2.43889655,25.2331528 2.35142069,24.9561979 L0.0388137931,24.9561979 C0.0388137931,24.9561979 1.31097931,34.8432847 11.4350069,36.5139479 C13.9159034,36.9234722 19.0824828,36.4378646 22.4230759,35.8934653 C30.6281379,34.5571076 36.9064138,34.3429792 41.9968138,41.3446632 C41.9968138,41.3446632 42.0625655,41.4216111 42.1193379,41.4216111 C42.2241931,41.4216111 42.2493931,41.3446632 42.2493931,41.3446632 C42.2493931,41.3446632 42.9115448,40.0036944 41.9846483,37.776816" id="Fill-4"></path>
                    <path d="M81.4542207,24.9561979 C81.3661655,25.2331528 79.6540138,30.2941354 70.3986621,31.0010764 C68.0579586,31.1794687 66.224731,30.9053958 61.8089379,30.5238264 C50.283269,28.6776528 45.4048966,34.3297222 43.9925379,37.4036042 C43.065931,39.4667882 43.5731172,41.3446632 43.5731172,41.3446632 C43.5731172,41.3446632 43.6061379,41.4216111 43.6910069,41.4216111 C43.7474897,41.4216111 43.8120828,41.3446632 43.8120828,41.3446632 C48.9013241,34.3429792 53.0764138,34.5334757 61.2800276,35.8709861 C64.6229379,36.4142326 69.7892276,36.9004167 72.2701241,36.4914687 C82.394731,34.8202292 83.7662483,24.9561979 83.7662483,24.9561979 L81.4542207,24.9561979" id="Fill-5"></path>
                    <polyline id="Fill-6" points="14.7454759 45.5393333 11.2548414 45.5393333 11.2548414 48.3777604 14.6713241 48.3777604 14.6713241 49.7671458 11.2548414 49.7671458 11.2548414 53.1067431 15.3841655 53.1067431 15.3841655 54.4964167 9.16063448 54.4964167 9.16063448 44.1496597 14.7454759 44.1496597 14.7454759 45.5393333"></polyline>
                    <path d="M20.4638483,48.1117569 C21.6523034,48.1117569 22.2611586,49.3092049 22.2611586,50.5951285 C22.2611586,52.0724132 21.6969103,53.4911944 20.3749241,53.4911944 C19.2310759,53.4911944 18.6665379,52.1023854 18.6665379,50.6689062 C18.6665379,49.2354271 19.186469,48.1117569 20.4638483,48.1117569 Z M22.2611586,54.4964167 L24.2366069,54.4964167 L24.2366069,43.6320625 L22.2611586,43.6320625 L22.2611586,47.9642014 L22.2316138,47.9642014 C21.7861241,47.3140347 20.9244,46.9298715 19.9589793,46.9298715 C17.9687586,46.9298715 16.5726207,48.7918958 16.5726207,50.713 C16.5726207,53.0776354 17.8644828,54.6739444 19.8103862,54.6739444 C20.9690069,54.6739444 21.7415172,54.0528854 22.2316138,53.4321146 L22.2611586,53.4321146 L22.2611586,54.4964167 L22.2611586,54.4964167 Z" id="Fill-7"></path>
                    <path d="M31.0542207,53.5802465 C30.3561517,54.2745069 29.6285379,54.6739444 28.6926621,54.6739444 C27.1033241,54.6739444 26.1825103,53.7280903 26.1825103,51.8657778 L26.1825103,47.1071111 L28.1579586,47.1071111 L28.1579586,51.5847882 C28.1579586,52.6194063 28.6185103,53.2989688 29.5540966,53.2989688 C30.2373931,53.2989688 31.0394483,52.7225799 31.0394483,51.3778646 L31.0394483,47.1071111 L33.0148966,47.1071111 L33.0148966,54.4964167 L31.0542207,54.4964167 L31.0542207,53.5802465" id="Fill-8"></path>
                    <path d="M40.8277655,54.0972674 C40.2038483,54.4667326 39.386731,54.6739444 38.7184966,54.6739444 C35.6290345,54.6739444 34.6190069,52.3384167 34.6190069,50.8311597 C34.6190069,48.7622118 36.1935724,46.9298715 38.8224828,46.9298715 C39.4165655,46.9298715 40.1441793,47.0774271 40.7533241,47.4321944 L40.2782897,48.5699861 C40.0700276,48.4815104 39.8472828,48.4074444 39.6245379,48.3486528 C39.4017931,48.2895729 39.1790483,48.2601771 38.9563034,48.2601771 C37.842,48.2601771 36.7135034,49.0135174 36.7135034,50.7279861 C36.7135034,52.205559 37.5598759,53.3436389 38.9710759,53.3436389 C39.4316276,53.3436389 39.9364966,53.2398889 40.4265931,52.9744618 L40.8277655,54.0972674" id="Fill-9"></path>
                    <path d="M46.2640138,50.2109653 C46.4123172,52.3830868 45.3875172,53.3583368 44.6002345,53.3583368 C44.1249103,53.3583368 43.7092552,52.9148056 43.7092552,52.2646389 C43.7092552,51.4222465 44.1993517,50.8608438 45.1647724,50.5651563 L46.2640138,50.2109653 Z M46.2341793,53.4174167 C46.2341793,53.8162778 46.2787862,54.2451111 46.4273793,54.4964167 L48.5218759,54.4964167 C48.284069,53.9793958 48.2102069,53.284559 48.2102069,52.6934722 L48.2102069,49.6783819 C48.2102069,47.3734028 46.5316552,46.9298715 45.1647724,46.9298715 C44.1399724,46.9298715 43.233931,47.1811771 42.3128276,47.9345174 L42.9515172,48.8659618 C43.4714483,48.4224306 44.065531,48.1117569 44.9121931,48.1117569 C45.5511724,48.1117569 46.1597379,48.5405903 46.2640138,49.220441 L44.5113103,49.7374618 C42.7881517,50.225375 41.7633517,51.0233854 41.7633517,52.4271806 C41.7633517,53.7871701 42.7287724,54.6739444 43.8873931,54.6739444 C44.5709793,54.6739444 45.2392138,54.2151389 45.7884,53.7871701 L46.2341793,53.4174167 L46.2341793,53.4174167 Z" id="Fill-10"></path>
                    <path d="M52.4577103,47.1071111 L54.4036138,47.1071111 L54.4036138,48.1117569 L52.4577103,48.1117569 L52.4577103,51.7476181 C52.4577103,52.9594757 52.8293379,53.4767847 53.4828,53.4767847 C53.9132276,53.4767847 54.1658069,53.3583368 54.4331586,53.2254792 L54.7746621,54.200441 C54.1953517,54.5111146 53.4828,54.6739444 52.8293379,54.6739444 C51.1948138,54.6739444 50.4819724,53.8162778 50.4819724,52.3090208 L50.4819724,48.1117569 L49.4421103,48.1117569 L49.4421103,47.1071111 L50.4819724,47.1071111 L50.4819724,45.3326979 L52.4577103,44.8888785 L52.4577103,47.1071111" id="Fill-11"></path>
                    <path d="M55.9037379,54.4964167 L57.8788966,54.4964167 L57.8788966,47.1071111 L55.9037379,47.1071111 L55.9037379,54.4964167 Z M55.7105379,44.8888785 C55.7105379,44.3271875 56.1861517,43.7505104 56.8540966,43.7505104 C57.5376828,43.7505104 58.0720966,44.3127778 58.0720966,44.8888785 C58.0720966,45.5246354 57.6115448,46.1312847 56.8842207,46.1312847 C56.1861517,46.1312847 55.7105379,45.5246354 55.7105379,44.8888785 L55.7105379,44.8888785 Z" id="Fill-12"></path>
                    <path d="M63.3748138,53.5802465 C61.9636138,53.5802465 61.5777931,52.0136215 61.5777931,50.713 C61.5777931,49.4861563 62.0232828,48.0235694 63.3748138,48.0235694 C64.7561793,48.0235694 65.1868966,49.4861563 65.1868966,50.713 C65.1868966,52.0136215 64.8158483,53.5802465 63.3748138,53.5802465 Z M63.3748138,54.6739444 C65.7065379,54.6739444 67.2811034,53.0038576 67.2811034,50.713 C67.2811034,48.3189687 65.3800966,46.9298715 63.3748138,46.9298715 C61.3845931,46.9298715 59.4832966,48.3189687 59.4832966,50.713 C59.4832966,53.0038576 61.0575724,54.6739444 63.3748138,54.6739444 L63.3748138,54.6739444 Z" id="Fill-13"></path>
                    <path d="M70.8461793,47.9788993 C71.5144138,47.2696528 72.4502897,46.9298715 73.3858759,46.9298715 C75.1238069,46.9298715 76.0446207,47.8757257 76.0446207,49.7374618 L76.0446207,54.4964167 L74.0691724,54.4964167 L74.0691724,49.9593715 C74.0691724,48.9250417 73.6089103,48.2449028 72.5841103,48.2449028 C71.6184,48.2449028 70.8609517,48.8803715 70.8609517,50.0925174 L70.8609517,54.4964167 L68.8852138,54.4964167 L68.8852138,47.1071111 L70.8461793,47.1071111 L70.8461793,47.9788993" id="Fill-14"></path>
                    <path d="M33.7129655,68.7000799 L33.7129655,62.3157083 L32.5250897,62.3157083 L32.5250897,61.3107743 L33.7129655,61.3107743 L33.7129655,60.4683819 C33.7129655,58.5325799 35.1687724,57.8377431 36.2827862,57.8377431 C36.7282759,57.8377431 37.3078759,57.8965347 37.8278069,58.1625382 L37.4857241,59.1380764 C37.2186621,59.0496007 36.9214759,59.0049306 36.6393517,59.0049306 C36.3273931,59.0049306 35.6887034,59.1824583 35.6887034,60.1136146 L35.6887034,61.3107743 L37.4709517,61.3107743 L37.4709517,62.3157083 L35.6887034,62.3157083 L35.6887034,68.7000799 L33.7129655,68.7000799" id="Fill-15"></path>
                    <path d="M42.1199172,67.7839097 C40.7090069,67.7839097 40.3226069,66.2175729 40.3226069,64.9169514 C40.3226069,63.6901076 40.7683862,62.2269444 42.1199172,62.2269444 C43.5015724,62.2269444 43.9322897,63.6901076 43.9322897,64.9169514 C43.9322897,66.2175729 43.5606621,67.7839097 42.1199172,67.7839097 Z M42.1199172,68.8776076 C44.451931,68.8776076 46.0264966,67.2075208 46.0264966,64.9169514 C46.0264966,62.5229201 44.1254897,61.1332465 42.1199172,61.1332465 C40.1296966,61.1332465 38.2284,62.5229201 38.2284,64.9169514 C38.2284,67.2075208 39.8029655,68.8776076 42.1199172,68.8776076 L42.1199172,68.8776076 Z" id="Fill-16"></path>
                    <path d="M49.5909931,62.6111076 L49.6208276,62.6111076 L50.0217103,62.0350069 C50.2598069,61.7243333 50.6902345,61.1332465 51.2993793,61.1332465 C51.744869,61.1332465 52.2201931,61.3698542 52.6361379,61.7983993 L51.8931724,63.1578125 C51.5664414,62.995559 51.3587586,62.9067951 50.9578759,62.9067951 C50.2742897,62.9067951 49.6057655,63.4537882 49.6057655,65.049809 L49.6057655,68.7000799 L47.6306069,68.7000799 L47.6306069,61.3107743 L49.5909931,61.3107743 L49.5909931,62.6111076" id="Fill-17"></path>
                    <path d="M18.6146897,74.0734653 C18.1541379,73.7630799 17.5452828,73.4826667 16.9364276,73.4826667 C16.059931,73.4826667 15.5846069,73.9702917 15.5846069,74.5763646 C15.5846069,75.2559271 16.3125103,75.7732361 17.5305103,76.7335 C18.9266483,77.8424722 19.6693241,78.7139722 19.6693241,79.9851979 C19.6693241,81.2855312 18.4217793,82.7927882 16.0747034,82.7927882 C14.9905241,82.7927882 13.7872966,82.4677049 13.0150759,81.7584583 L13.7725241,80.5762847 C14.322,80.975434 14.9606897,81.4034028 15.8965655,81.4034028 C16.758,81.4034028 17.5157379,80.9454618 17.5157379,79.9699236 C17.5157379,78.8324201 16.1193103,78.0785035 15.2874207,77.4280486 C14.2773931,76.6156285 13.430731,75.9801597 13.430731,74.605184 C13.430731,73.216375 14.841931,72.0932812 16.7281655,72.0932812 C17.9166207,72.0932812 18.867269,72.5218264 19.3573655,72.9947535 L18.6146897,74.0734653" id="Fill-18"></path>
                    <path d="M27.2742207,82.2163993 C26.6503034,82.5861528 25.8334759,82.7927882 25.1649517,82.7927882 C22.0754897,82.7927882 21.0657517,80.4578368 21.0657517,78.9505799 C21.0657517,76.8816319 22.6400276,75.0487153 25.2692276,75.0487153 C25.8633103,75.0487153 26.5909241,75.1968472 27.200069,75.5510382 L26.7247448,76.6894062 C26.5167724,76.6003542 26.2940276,76.5265764 26.0709931,76.4677847 C25.8485379,76.4087049 25.6255034,76.3790208 25.4027586,76.3790208 C24.2887448,76.3790208 23.159669,77.1329375 23.159669,78.8471181 C23.159669,80.3249792 24.006331,81.4627708 25.417531,81.4627708 C25.8780828,81.4627708 26.3829517,81.3595972 26.8730483,81.0935937 L27.2742207,82.2163993" id="Fill-19"></path>
                    <path d="M32.0570069,81.6990903 C30.6458069,81.6990903 30.2596966,80.1330417 30.2596966,78.8324201 C30.2596966,77.6055764 30.7054759,76.1424132 32.0570069,76.1424132 C33.4383724,76.1424132 33.8690897,77.6055764 33.8690897,78.8324201 C33.8690897,80.1330417 33.4977517,81.6990903 32.0570069,81.6990903 Z M32.0570069,82.7927882 C34.3890207,82.7927882 35.9635862,81.1229896 35.9635862,78.8324201 C35.9635862,76.4381007 34.0622897,75.0487153 32.0570069,75.0487153 C30.0664966,75.0487153 28.1654897,76.4381007 28.1654897,78.8324201 C28.1654897,81.1229896 29.7397655,82.7927882 32.0570069,82.7927882 L32.0570069,82.7927882 Z" id="Fill-20"></path>
                    <path d="M39.8994207,75.2262431 L41.8453241,75.2262431 L41.8453241,76.2314653 L39.8994207,76.2314653 L39.8994207,79.86675 C39.8994207,81.0788958 40.2710483,81.5956285 40.9245103,81.5956285 C41.3552276,81.5956285 41.6078069,81.4777569 41.874869,81.3446111 L42.2166621,82.3201493 C41.6373517,82.6302465 40.9245103,82.7927882 40.2710483,82.7927882 C38.6368138,82.7927882 37.9239724,81.9359861 37.9239724,80.4281528 L37.9239724,76.2314653 L36.8844,76.2314653 L36.8844,75.2262431 L37.9239724,75.2262431 L37.9239724,73.4529826 L39.8994207,73.0094514 L39.8994207,75.2262431" id="Fill-21"></path>
                    <polygon id="Fill-22" points="43.3451586 82.6155486 45.3206069 82.6155486 45.3206069 71.7532118 43.3451586 71.7532118"></polygon>
                    <path d="M51.4696966,78.329809 C51.6182897,80.5022187 50.5937793,81.4777569 49.8064966,81.4777569 C49.3311724,81.4777569 48.9152276,81.0345139 48.9152276,80.384059 C48.9152276,79.5416667 49.4056138,78.9802639 50.3707448,78.6845764 L51.4696966,78.329809 Z M51.4404414,81.5368368 C51.4404414,81.9359861 51.4847586,82.3642431 51.6336414,82.6155486 L53.7278483,82.6155486 C53.4900414,82.0982396 53.4156,81.4034028 53.4156,80.8126042 L53.4156,77.7978021 C53.4156,75.4922465 51.7373379,75.0487153 50.3707448,75.0487153 C49.3462345,75.0487153 48.4401931,75.3000208 47.5193793,76.0539375 L48.1577793,76.9848056 C48.6774207,76.5412743 49.2715034,76.2314653 50.1181655,76.2314653 C50.7568552,76.2314653 51.3662897,76.6597222 51.4696966,77.3398611 L49.7172828,77.8568819 C47.9944138,78.3447951 46.9693241,79.1428056 46.9693241,80.5463125 C46.9693241,81.9063021 47.9350345,82.7927882 49.0936552,82.7927882 C49.7766621,82.7927882 50.4448966,82.334559 50.9949517,81.9063021 L51.4404414,81.5368368 L51.4404414,81.5368368 Z" id="Fill-23"></path>
                    <path d="M57.2926345,76.0983194 C57.960869,75.3890729 58.8964552,75.0487153 59.8326207,75.0487153 C61.5702621,75.0487153 62.4907862,75.9945694 62.4907862,77.8568819 L62.4907862,82.6155486 L60.5156276,82.6155486 L60.5156276,78.0785035 C60.5156276,77.0441736 60.0553655,76.3646111 59.0302759,76.3646111 C58.0648552,76.3646111 57.3076966,77.0000799 57.3076966,78.2116493 L57.3076966,82.6155486 L55.331669,82.6155486 L55.331669,75.2262431 L57.2926345,75.2262431 L57.2926345,76.0983194" id="Fill-24"></path>
                    <path d="M67.9869931,76.2314653 C69.1751586,76.2314653 69.7840138,77.4280486 69.7840138,78.7139722 C69.7840138,80.1921215 69.2200552,81.6109028 67.8974897,81.6109028 C66.7542207,81.6109028 66.1896828,80.2215174 66.1896828,78.7880382 C66.1896828,77.354559 66.7096138,76.2314653 67.9869931,76.2314653 Z M69.7840138,82.6155486 L71.7597517,82.6155486 L71.7597517,71.7532118 L69.7840138,71.7532118 L69.7840138,76.0833333 L69.7541793,76.0833333 C69.3086897,75.4331667 68.4475448,75.0487153 67.4821241,75.0487153 C65.4919034,75.0487153 64.0951862,76.9110278 64.0951862,78.8324201 C64.0951862,81.1964792 65.3876276,82.7927882 67.333531,82.7927882 C68.4921517,82.7927882 69.2640828,82.1720174 69.7541793,81.5515347 L69.7840138,81.5515347 L69.7840138,82.6155486 L69.7840138,82.6155486 Z" id="Fill-25"></path>
                </g>
            </g>
        </g>
    </g>
</svg>